# This file uses centimeters as units for non-parametric coordinates.

mtllib Combine.mtl
g default
v -0.635249 0.000000 0.613133
v 0.663178 0.000000 0.614788
v -0.003941 0.000000 -0.630920
v -0.661921 0.000000 0.609352
v -0.146472 0.000000 0.259868
v -0.290429 0.000000 0.531886
v -0.527981 0.000000 0.529697
v -0.003819 0.000000 -0.454197
v 0.521099 0.000000 0.527132
v 0.517006 0.000000 0.530515
v 0.288248 0.000000 0.531927
v 0.000335 0.000000 -0.008219
v -0.194458 0.000000 0.526737
v -0.000556 0.000000 0.166666
v 0.192753 0.000000 0.528381
v -0.635249 1.000000 0.613133
v 0.663178 1.000000 0.614788
v -0.003941 1.000000 -0.630920
v -0.661921 1.000000 0.609352
v -0.146472 1.000000 0.259868
v -0.290429 1.000000 0.531886
v -0.527981 1.000000 0.529697
v -0.003819 1.000000 -0.454197
v 0.521099 1.000000 0.527132
v 0.517006 1.000000 0.530515
v 0.288248 1.000000 0.531927
v 0.000335 1.000000 -0.008219
v -0.194458 1.000000 0.526737
v -0.000556 1.000000 0.166666
v 0.192753 1.000000 0.528381
vn 0.000000 -1.000000 0.000000
vn 0.000000 -1.000000 0.000000
vn 0.000000 -1.000000 0.000000
vn 0.000000 -1.000000 0.000000
vn 0.000000 -1.000000 0.000000
vn 0.000000 -1.000000 0.000000
vn 0.000000 -1.000000 0.000000
vn 0.000000 -1.000000 0.000000
vn 0.000000 -1.000000 0.000000
vn 0.000000 -1.000000 0.000000
vn 0.000000 -1.000000 0.000000
vn 0.000000 -1.000000 0.000000
vn 0.000000 -1.000000 0.000000
vn 0.000000 -1.000000 0.000000
vn 0.000000 -1.000000 0.000000
vn -0.004102 0.000000 0.999992
vn -0.001275 0.000000 0.999999
vn -0.004102 0.000000 0.999992
vn -0.001275 0.000000 0.999999
vn 0.881546 0.000000 -0.472098
vn 0.881546 0.000000 -0.472098
vn 0.881546 0.000000 -0.472098
vn 0.881546 0.000000 -0.472097
vn -0.883386 0.000000 -0.468647
vn -0.883385 0.000000 -0.468647
vn -0.883385 0.000000 -0.468647
vn -0.883385 0.000000 -0.468648
vn -0.140331 0.000000 0.990105
vn -0.140331 0.000000 0.990105
vn -0.880513 0.000000 -0.474023
vn -0.883859 0.000000 -0.467754
vn -0.880514 0.000000 -0.474021
vn -0.883860 0.000000 -0.467752
vn 0.009213 0.000000 -0.999958
vn 0.009213 0.000000 -0.999958
vn 0.009213 0.000000 -0.999958
vn 0.009213 0.000000 -0.999958
vn 0.882569 0.000000 0.470182
vn 0.882570 0.000000 0.470182
vn 0.882570 0.000000 0.470182
vn 0.882570 0.000000 0.470181
vn -0.881777 0.000000 0.471667
vn -0.881777 0.000000 0.471667
vn -0.881777 0.000000 0.471667
vn -0.881777 0.000000 0.471667
vn -0.637123 0.000000 -0.770762
vn -0.637123 0.000000 -0.770762
vn -0.637123 0.000000 -0.770762
vn -0.637123 0.000000 -0.770762
vn -0.006174 0.000000 -0.999981
vn -0.006174 0.000000 -0.999981
vn -0.006174 0.000000 -0.999981
vn -0.006174 0.000000 -0.999981
vn 0.882464 0.000000 -0.470379
vn 0.882465 0.000000 -0.470379
vn 0.882465 0.000000 -0.470379
vn 0.882464 0.000000 -0.470379
vn -0.877098 0.000000 -0.480311
vn -0.877100 0.000000 -0.480309
vn 0.880453 0.000000 0.474133
vn 0.880453 0.000000 0.474133
vn 0.880453 0.000000 0.474133
vn 0.880453 0.000000 0.474133
vn -0.881954 0.000000 0.471336
vn -0.881954 0.000000 0.471336
vn -0.881955 0.000000 0.471335
vn -0.881955 0.000000 0.471334
vn 0.004246 0.000000 -0.999991
vn 0.004246 0.000000 -0.999991
vn 0.004246 0.000000 -0.999991
vn 0.004246 0.000000 -0.999991
vn 0.000000 1.000000 0.000000
vn 0.000000 1.000000 0.000000
vn 0.000000 1.000000 0.000000
vn 0.000000 1.000000 0.000000
vn 0.000000 1.000000 0.000000
vn 0.000000 1.000000 0.000000
vn 0.000000 1.000000 0.000000
vn 0.000000 1.000000 0.000000
vn 0.000000 1.000000 0.000000
vn 0.000000 1.000000 0.000000
vn 0.000000 1.000000 0.000000
vn 0.000000 1.000000 0.000000
vn 0.000000 1.000000 0.000000
vn 0.000000 1.000000 0.000000
vn 0.000000 1.000000 0.000000
s 1
g svgMesh5
usemtl svgBlinn2SG
f 4//1 3//2 1//3
f 1//3 3//2 7//4
f 7//4 3//2 8//5
f 3//2 2//6 8//5
f 8//5 2//6 9//7
f 1//3 7//4 2//6
f 7//4 6//8 2//6
f 12//9 14//10 5//11
f 12//9 11//12 14//10
f 14//10 11//12 15//13
f 14//10 13//14 5//11
f 5//11 13//14 6//8
f 6//8 13//14 2//6
f 13//14 15//13 2//6
f 15//13 11//12 2//6
f 9//7 2//6 10//15
f 2//6 11//12 10//15
s 3
f 1//16 2//17 16//18
f 16//18 2//17 17//19
s 4
f 2//20 3//21 17//22
f 17//22 3//21 18//23
s 5
f 3//24 4//25 18//26
f 18//26 4//25 19//27
s 3
f 4//28 1//16 19//29
f 19//29 1//16 16//18
s 6
f 5//30 6//31 20//32
f 20//32 6//31 21//33
s 7
f 6//34 7//35 21//36
f 21//36 7//35 22//37
s 8
f 7//38 8//39 22//40
f 22//40 8//39 23//41
s 9
f 8//42 9//43 23//44
f 23//44 9//43 24//45
s 10
f 9//46 10//47 24//48
f 24//48 10//47 25//49
s 11
f 10//50 11//51 25//52
f 25//52 11//51 26//53
s 12
f 11//54 12//55 26//56
f 26//56 12//55 27//57
s 6
f 12//58 5//30 27//59
f 27//59 5//30 20//32
s 13
f 13//60 14//61 28//62
f 28//62 14//61 29//63
s 14
f 14//64 15//65 29//66
f 29//66 15//65 30//67
s 15
f 15//68 13//69 30//70
f 30//70 13//69 28//71
s 16
f 19//72 16//73 18//74
f 18//74 23//75 17//76
f 23//75 24//77 17//76
f 18//74 16//73 23//75
f 23//75 16//73 22//78
f 16//73 17//76 22//78
f 22//78 17//76 21//79
f 27//80 29//81 26//82
f 29//81 30//83 26//82
f 27//80 20//84 29//81
f 29//81 20//84 28//85
f 20//84 21//79 28//85
f 21//79 17//76 28//85
f 28//85 17//76 30//83
f 30//83 17//76 26//82
f 24//77 25//86 17//76
f 17//76 25//86 26//82
