# This file uses centimeters as units for non-parametric coordinates.

mtllib Connect.mtl
g default
v 0.666698 0.000000 0.617029
v 0.338344 0.000000 0.000000
v 0.666941 0.000000 -0.624691
v -0.658357 0.000000 -0.628695
v -0.330003 0.000000 -0.011665
v -0.658600 0.000000 0.613026
v -0.036641 0.000000 0.534361
v -0.524146 0.000000 0.531970
v -0.281958 0.000000 0.078300
v 0.527356 0.000000 0.534361
v 0.053845 0.000000 0.534361
v 0.291191 0.000000 0.092041
v 0.008341 0.000000 0.440290
v -0.224443 0.000000 0.003485
v -0.232051 0.000000 -0.017576
v 0.000000 0.000000 -0.451956
v 0.232784 0.000000 -0.015150
v 0.240392 0.000000 0.005911
v 0.412499 0.000000 -0.317093
v 0.290306 0.000000 -0.089969
v 0.046076 0.000000 -0.544601
v 0.531971 0.000000 -0.545116
v -0.277513 0.000000 -0.108978
v -0.281373 0.000000 -0.104078
v -0.283651 0.000000 -0.104030
v -0.518886 0.000000 -0.544601
v -0.046132 0.000000 -0.544601
v 0.666698 1.000000 0.617029
v 0.338344 1.000000 0.000000
v 0.666941 1.000000 -0.624691
v -0.658357 1.000000 -0.628695
v -0.330003 1.000000 -0.011665
v -0.658600 1.000000 0.613026
v -0.036641 1.000000 0.534361
v -0.524146 1.000000 0.531970
v -0.281958 1.000000 0.078300
v 0.527356 1.000000 0.534361
v 0.053845 1.000000 0.534361
v 0.291191 1.000000 0.092041
v 0.008341 1.000000 0.440290
v -0.224443 1.000000 0.003485
v -0.232051 1.000000 -0.017576
v 0.000000 1.000000 -0.451956
v 0.232784 1.000000 -0.015150
v 0.240392 1.000000 0.005911
v 0.412499 1.000000 -0.317093
v 0.290306 1.000000 -0.089969
v 0.046076 1.000000 -0.544601
v 0.531971 1.000000 -0.545116
v -0.277513 1.000000 -0.108978
v -0.281373 1.000000 -0.104078
v -0.283651 1.000000 -0.104030
v -0.518886 1.000000 -0.544601
v -0.046132 1.000000 -0.544601
vn 0.000000 -1.000000 0.000000
vn 0.000000 -1.000000 0.000000
vn 0.000000 -1.000000 0.000000
vn 0.000000 -1.000000 0.000000
vn 0.000000 -1.000000 0.000000
vn 0.000000 -1.000000 0.000000
vn 0.000000 -1.000000 0.000000
vn 0.000000 -1.000000 0.000000
vn 0.000000 -1.000000 0.000000
vn 0.000000 -1.000000 0.000000
vn 0.000000 -1.000000 0.000000
vn 0.000000 -1.000000 0.000000
vn 0.000000 -1.000000 0.000000
vn 0.000000 -1.000000 0.000000
vn 0.000000 -1.000000 0.000000
vn 0.000000 -1.000000 0.000000
vn 0.000000 -1.000000 0.000000
vn 0.000000 -1.000000 0.000000
vn 0.000000 -1.000000 0.000000
vn 0.000000 -1.000000 0.000000
vn 0.000000 -1.000000 0.000000
vn 0.000000 -1.000000 0.000000
vn 0.000000 -1.000000 0.000000
vn 0.000000 -1.000000 0.000000
vn 0.000000 -1.000000 0.000000
vn 0.000000 -1.000000 0.000000
vn 0.000000 -1.000000 0.000000
vn 0.882785 0.000000 -0.469777
vn 0.882785 0.000000 -0.469777
vn 0.882785 0.000000 -0.469777
vn 0.882785 0.000000 -0.469777
vn 0.885028 0.000000 0.465539
vn 0.885028 0.000000 0.465538
vn 0.885028 0.000000 0.465538
vn 0.885028 0.000000 0.465539
vn 0.003020 0.000000 -0.999995
vn 0.003020 0.000000 -0.999996
vn 0.003020 0.000000 -0.999996
vn 0.003020 0.000000 -0.999996
vn -0.882785 0.000000 0.469777
vn -0.882785 0.000000 0.469777
vn -0.882785 0.000000 0.469777
vn -0.882785 0.000000 0.469777
vn -0.885028 0.000000 -0.465539
vn -0.885028 0.000000 -0.465538
vn -0.885028 0.000000 -0.465538
vn -0.885028 0.000000 -0.465538
vn -0.003020 0.000000 0.999996
vn -0.003020 0.000000 0.999996
vn -0.003020 0.000000 0.999996
vn -0.003020 0.000000 0.999995
vn 0.004905 0.000000 -0.999988
vn 0.004905 0.000000 -0.999988
vn 0.004905 0.000000 -0.999988
vn 0.004905 0.000000 -0.999988
vn 0.882167 0.000000 0.470937
vn 0.882167 0.000000 0.470937
vn 0.882167 0.000000 0.470937
vn 0.882167 0.000000 0.470937
vn -0.880676 0.000000 0.473718
vn -0.880676 0.000000 0.473719
vn -0.880676 0.000000 0.473719
vn -0.880676 0.000000 0.473719
vn 0.000000 0.000000 -1.000000
vn 0.000000 0.000000 -1.000000
vn 0.000000 0.000000 -1.000000
vn 0.000000 0.000000 -1.000000
vn 0.881158 0.000000 0.472822
vn 0.881158 0.000000 0.472822
vn 0.881158 0.000000 0.472822
vn 0.881158 0.000000 0.472822
vn -0.882137 0.000000 0.470993
vn -0.882137 0.000000 0.470993
vn -0.882137 0.000000 0.470994
vn -0.882136 0.000000 0.470994
vn 0.882503 0.000000 -0.470306
vn 0.885389 0.000000 -0.464851
vn 0.882504 0.000000 -0.470306
vn 0.885389 0.000000 -0.464851
vn 0.940520 0.000000 -0.339738
vn 0.940517 0.000000 -0.339747
vn 0.882031 0.000000 0.471192
vn 0.882031 0.000000 0.471192
vn 0.882031 0.000000 0.471192
vn 0.882031 0.000000 0.471192
vn -0.882503 0.000000 0.470306
vn -0.885389 0.000000 0.464852
vn -0.882503 0.000000 0.470306
vn -0.885389 0.000000 0.464852
vn -0.940517 0.000000 0.339747
vn -0.940517 0.000000 0.339747
vn -0.882031 0.000000 -0.471192
vn -0.882031 0.000000 -0.471192
vn -0.882031 0.000000 -0.471192
vn -0.882031 0.000000 -0.471192
vn -0.883222 0.000000 -0.468956
vn -0.880640 0.000000 -0.473786
vn -0.883221 0.000000 -0.468957
vn -0.880640 0.000000 -0.473787
vn 0.880934 0.000000 -0.473239
vn 0.880934 0.000000 -0.473240
vn 0.880934 0.000000 -0.473240
vn 0.880934 0.000000 -0.473240
vn 0.001060 0.000000 1.000000
vn 0.001060 0.000000 0.999999
vn 0.001060 0.000000 0.999999
vn 0.001060 0.000000 0.999999
vn -0.885781 0.000000 -0.464103
vn -0.885780 0.000000 -0.464105
vn -0.882107 0.000000 -0.471049
vn -0.785519 0.000000 -0.618837
vn -0.882107 0.000000 -0.471049
vn -0.785538 0.000000 -0.618814
vn -0.021347 0.000000 -0.999772
vn -0.021347 0.000000 -0.999772
vn -0.021350 0.000000 -0.999772
vn -0.021350 0.000000 -0.999772
vn 0.882133 0.000000 -0.471000
vn 0.882133 0.000000 -0.471000
vn 0.882133 0.000000 -0.471000
vn 0.882133 0.000000 -0.471000
vn 0.000000 0.000000 1.000000
vn 0.000000 0.000000 1.000000
vn 0.000000 0.000000 1.000000
vn 0.000000 0.000000 1.000000
vn -0.883153 0.000000 -0.469086
vn -0.883153 0.000000 -0.469086
vn 0.000000 1.000000 0.000000
vn 0.000000 1.000000 0.000000
vn 0.000000 1.000000 0.000000
vn 0.000000 1.000000 0.000000
vn 0.000000 1.000000 0.000000
vn 0.000000 1.000000 0.000000
vn 0.000000 1.000000 0.000000
vn 0.000000 1.000000 0.000000
vn 0.000000 1.000000 0.000000
vn 0.000000 1.000000 0.000000
vn 0.000000 1.000000 0.000000
vn 0.000000 1.000000 0.000000
vn 0.000000 1.000000 0.000000
vn 0.000000 1.000000 0.000000
vn 0.000000 1.000000 0.000000
vn 0.000000 1.000000 0.000000
vn 0.000000 1.000000 0.000000
vn 0.000000 1.000000 0.000000
vn 0.000000 1.000000 0.000000
vn 0.000000 1.000000 0.000000
vn 0.000000 1.000000 0.000000
vn 0.000000 1.000000 0.000000
vn 0.000000 1.000000 0.000000
vn 0.000000 1.000000 0.000000
vn 0.000000 1.000000 0.000000
vn 0.000000 1.000000 0.000000
vn 0.000000 1.000000 0.000000
s 1
g svgMesh13
usemtl svgBlinn2SG
f 4//1 26//2 5//3
f 26//2 25//4 5//3
f 4//1 3//5 26//2
f 26//2 3//5 27//6
f 3//5 22//7 27//6
f 22//7 21//8 27//6
f 3//5 2//9 22//7
f 22//7 2//9 19//10
f 19//10 2//9 20//11
f 1//12 10//13 2//9
f 10//13 12//14 2//9
f 1//12 6//15 10//13
f 10//13 6//15 11//16
f 6//15 5//3 8//17
f 8//17 5//3 9//18
f 25//4 24//19 5//3
f 27//6 21//8 23//20
f 21//8 16//21 23//20
f 16//21 15//22 23//20
f 21//8 20//11 16//21
f 16//21 20//11 17//23
f 23//20 15//22 24//19
f 24//19 15//22 5//3
f 5//3 15//22 9//18
f 15//22 14//24 9//18
f 14//24 13//25 9//18
f 9//18 13//25 7//26
f 20//11 2//9 17//23
f 17//23 2//9 18//27
f 2//9 12//14 18//27
f 18//27 12//14 13//25
f 12//14 11//16 13//25
f 13//25 11//16 7//26
f 11//16 6//15 7//26
f 6//15 8//17 7//26
s 4
f 1//28 2//29 28//30
f 28//30 2//29 29//31
s 5
f 2//32 3//33 29//34
f 29//34 3//33 30//35
s 6
f 3//36 4//37 30//38
f 30//38 4//37 31//39
s 7
f 4//40 5//41 31//42
f 31//42 5//41 32//43
s 8
f 5//44 6//45 32//46
f 32//46 6//45 33//47
s 9
f 6//48 1//49 33//50
f 33//50 1//49 28//51
s 10
f 7//52 8//53 34//54
f 34//54 8//53 35//55
s 11
f 8//56 9//57 35//58
f 35//58 9//57 36//59
s 12
f 9//60 7//61 36//62
f 36//62 7//61 34//63
s 13
f 10//64 11//65 37//66
f 37//66 11//65 38//67
s 14
f 11//68 12//69 38//70
f 38//70 12//69 39//71
s 15
f 12//72 10//73 39//74
f 39//74 10//73 37//75
s 16
f 13//76 14//77 40//78
f 40//78 14//77 41//79
f 14//77 15//80 41//79
f 41//79 15//80 42//81
s 17
f 15//82 16//83 42//84
f 42//84 16//83 43//85
s 18
f 16//86 17//87 43//88
f 43//88 17//87 44//89
f 17//87 18//90 44//89
f 44//89 18//90 45//91
s 19
f 18//92 13//93 45//94
f 45//94 13//93 40//95
s 20
f 19//96 20//97 46//98
f 46//98 20//97 47//99
s 21
f 20//100 21//101 47//102
f 47//102 21//101 48//103
s 22
f 21//104 22//105 48//106
f 48//106 22//105 49//107
s 20
f 22//108 19//96 49//109
f 49//109 19//96 46//98
s 23
f 23//110 24//111 50//112
f 50//112 24//111 51//113
s 24
f 24//114 25//115 51//116
f 51//116 25//115 52//117
s 25
f 25//118 26//119 52//120
f 52//120 26//119 53//121
s 26
f 26//122 27//123 53//124
f 53//124 27//123 54//125
s 23
f 27//126 23//110 54//127
f 54//127 23//110 50//112
s 27
f 28//128 37//129 33//130
f 37//129 38//131 33//130
f 28//128 29//132 37//129
f 37//129 29//132 39//133
f 33//130 35//134 32//135
f 35//134 36//136 32//135
f 31//137 53//138 30//139
f 53//138 54//140 30//139
f 31//137 32//135 53//138
f 53//138 32//135 52//141
f 30//139 54//140 49//142
f 49//142 54//140 48//143
f 30//139 49//142 29//132
f 49//142 46//144 29//132
f 46//144 47//145 29//132
f 52//141 32//135 51//146
f 48//143 54//140 47//145
f 54//140 43//147 47//145
f 43//147 44//148 47//145
f 54//140 50//149 43//147
f 43//147 50//149 42//150
f 47//145 44//148 29//132
f 44//148 45//151 29//132
f 29//132 45//151 39//133
f 45//151 40//152 39//133
f 39//133 40//152 38//131
f 50//149 51//146 42//150
f 51//146 32//135 42//150
f 32//135 36//136 42//150
f 42//150 36//136 41//153
f 41//153 36//136 40//152
f 36//136 34//154 40//152
f 40//152 34//154 38//131
f 38//131 34//154 33//130
f 34//154 35//134 33//130
