# This file uses centimeters as units for non-parametric coordinates.

mtllib Create.mtl
g default
v -0.635249 0.000000 0.615373
v 0.663178 0.000000 0.617029
v -0.003941 0.000000 -0.628680
v -0.661921 0.000000 0.611594
v -0.043850 0.000000 0.534364
v -0.527981 0.000000 0.531972
v -0.287578 0.000000 0.078341
v -0.043850 0.000000 0.078261
v 0.523846 0.000000 0.534361
v 0.038819 0.000000 0.534361
v 0.038819 0.000000 0.078199
v 0.281669 0.000000 0.079686
v 0.215752 0.000000 -0.005787
v -0.243938 0.000000 -0.004407
v -0.003403 0.000000 -0.451301
v 0.234671 0.000000 -0.007971
v -0.635249 1.000000 0.615373
v 0.663178 1.000000 0.617029
v -0.003941 1.000000 -0.628680
v -0.661921 1.000000 0.611594
v -0.043850 1.000000 0.534364
v -0.527981 1.000000 0.531972
v -0.287578 1.000000 0.078341
v -0.043850 1.000000 0.078261
v 0.523846 1.000000 0.534361
v 0.038819 1.000000 0.534361
v 0.038819 1.000000 0.078199
v 0.281669 1.000000 0.079686
v 0.215752 1.000000 -0.005787
v -0.243938 1.000000 -0.004407
v -0.003403 1.000000 -0.451301
v 0.234671 1.000000 -0.007971
vn 0.000000 -1.000000 0.000000
vn 0.000000 -1.000000 0.000000
vn 0.000000 -1.000000 0.000000
vn 0.000000 -1.000000 0.000000
vn 0.000000 -1.000000 0.000000
vn 0.000000 -1.000000 0.000000
vn 0.000000 -1.000000 0.000000
vn 0.000000 -1.000000 0.000000
vn 0.000000 -1.000000 0.000000
vn 0.000000 -1.000000 0.000000
vn 0.000000 -1.000000 0.000000
vn 0.000000 -1.000000 0.000000
vn 0.000000 -1.000000 0.000000
vn 0.000000 -1.000000 0.000000
vn 0.000000 -1.000000 0.000000
vn 0.000000 -1.000000 0.000000
vn -0.004102 0.000000 0.999992
vn -0.001275 0.000000 0.999999
vn -0.004102 0.000000 0.999992
vn -0.001275 0.000000 0.999999
vn 0.881546 0.000000 -0.472098
vn 0.881546 0.000000 -0.472097
vn 0.881546 0.000000 -0.472098
vn 0.881547 0.000000 -0.472097
vn -0.883386 0.000000 -0.468647
vn -0.883386 0.000000 -0.468647
vn -0.883386 0.000000 -0.468647
vn -0.883385 0.000000 -0.468647
vn -0.140296 0.000000 0.990110
vn -0.140296 0.000000 0.990110
vn 0.004939 0.000000 -0.999988
vn 0.004939 0.000000 -0.999988
vn 0.004939 0.000000 -0.999988
vn 0.004939 0.000000 -0.999988
vn 0.883591 0.000000 0.468259
vn 0.883591 0.000000 0.468260
vn 0.883591 0.000000 0.468260
vn 0.883590 0.000000 0.468261
vn 0.000327 0.000000 1.000000
vn 0.000327 0.000000 1.000000
vn 0.000327 0.000000 1.000000
vn 0.000327 0.000000 1.000000
vn -1.000000 0.000000 0.000000
vn -1.000000 0.000000 0.000000
vn -1.000000 0.000000 0.000000
vn -1.000000 0.000000 0.000000
vn 0.000000 0.000000 -1.000000
vn 0.000000 0.000000 -1.000000
vn 0.000000 0.000000 -1.000000
vn 0.000000 0.000000 -1.000000
vn 1.000000 0.000000 0.000000
vn 1.000000 0.000000 0.000000
vn 1.000000 0.000000 0.000000
vn 1.000000 0.000000 0.000000
vn -0.006122 0.000000 0.999981
vn -0.006122 0.000000 0.999981
vn -0.006122 0.000000 0.999981
vn -0.006122 0.000000 0.999981
vn -0.882608 0.000000 0.470110
vn -0.882608 0.000000 0.470110
vn -0.882608 0.000000 0.470110
vn -0.882608 0.000000 0.470110
vn -0.007445 0.000000 -0.999972
vn -0.003002 0.000000 -0.999996
vn -0.007445 0.000000 -0.999972
vn -0.003002 0.000000 -0.999996
vn 0.880554 0.000000 0.473947
vn 0.880554 0.000000 0.473947
vn 0.880554 0.000000 0.473947
vn 0.880554 0.000000 0.473947
vn -0.881004 0.000000 0.473109
vn -0.881004 0.000000 0.473109
vn -0.881003 0.000000 0.473110
vn -0.881003 0.000000 0.473110
vn -0.114649 0.000000 -0.993406
vn -0.114649 0.000000 -0.993406
vn 0.000000 1.000000 0.000000
vn 0.000000 1.000000 0.000000
vn 0.000000 1.000000 0.000000
vn 0.000000 1.000000 0.000000
vn 0.000000 1.000000 0.000000
vn 0.000000 1.000000 0.000000
vn 0.000000 1.000000 0.000000
vn 0.000000 1.000000 0.000000
vn 0.000000 1.000000 0.000000
vn 0.000000 1.000000 0.000000
vn 0.000000 1.000000 0.000000
vn 0.000000 1.000000 0.000000
vn 0.000000 1.000000 0.000000
vn 0.000000 1.000000 0.000000
vn 0.000000 1.000000 0.000000
vn 0.000000 1.000000 0.000000
s 1
g svgMesh6
usemtl svgBlinn2SG
f 4//1 3//2 1//3
f 1//3 3//2 6//4
f 6//4 3//2 7//5
f 1//3 6//4 2//6
f 6//4 5//7 2//6
f 7//5 3//2 14//8
f 14//8 3//2 15//9
f 3//2 2//6 15//9
f 15//9 2//6 16//10
f 2//6 5//7 9//11
f 9//11 5//7 10//12
f 7//5 14//8 8//13
f 14//8 13//14 8//13
f 5//7 8//13 10//12
f 10//12 8//13 11//15
f 8//13 13//14 11//15
f 11//15 13//14 12//16
f 13//14 16//10 12//16
f 16//10 2//6 12//16
f 2//6 9//11 12//16
s 2
f 1//17 2//18 17//19
f 17//19 2//18 18//20
s 3
f 2//21 3//22 18//23
f 18//23 3//22 19//24
s 4
f 3//25 4//26 19//27
f 19//27 4//26 20//28
s 2
f 4//29 1//17 20//30
f 20//30 1//17 17//19
s 5
f 5//31 6//32 21//33
f 21//33 6//32 22//34
s 6
f 6//35 7//36 22//37
f 22//37 7//36 23//38
s 7
f 7//39 8//40 23//41
f 23//41 8//40 24//42
s 8
f 8//43 5//44 24//45
f 24//45 5//44 21//46
s 9
f 9//47 10//48 25//49
f 25//49 10//48 26//50
s 10
f 10//51 11//52 26//53
f 26//53 11//52 27//54
s 11
f 11//55 12//56 27//57
f 27//57 12//56 28//58
s 12
f 12//59 9//60 28//61
f 28//61 9//60 25//62
s 13
f 13//63 14//64 29//65
f 29//65 14//64 30//66
s 14
f 14//67 15//68 30//69
f 30//69 15//68 31//70
s 15
f 15//71 16//72 31//73
f 31//73 16//72 32//74
s 13
f 16//75 13//63 32//76
f 32//76 13//63 29//65
s 16
f 20//77 17//78 19//79
f 19//79 31//80 18//81
f 31//80 32//82 18//81
f 19//79 17//78 31//80
f 31//80 17//78 30//83
f 18//81 25//84 17//78
f 25//84 26//85 17//78
f 17//78 22//86 30//83
f 22//86 23//87 30//83
f 23//87 24//88 30//83
f 30//83 24//88 29//89
f 22//86 17//78 21//90
f 17//78 26//85 21//90
f 21//90 26//85 24//88
f 26//85 27//91 24//88
f 24//88 27//91 29//89
f 27//91 28//92 29//89
f 29//89 28//92 32//82
f 32//82 28//92 18//81
f 28//92 25//84 18//81
