# This file uses centimeters as units for non-parametric coordinates.

mtllib Explore.mtl
g default
v -0.631414 0.000000 0.614908
v 0.667013 0.000000 0.616564
v -0.000106 0.000000 -0.629145
v -0.658086 0.000000 0.611128
v 0.527573 0.000000 0.533896
v -0.524621 0.000000 0.533001
v -0.285732 0.000000 0.082072
v 0.286382 0.000000 0.080654
v 0.242742 0.000000 -0.002022
v -0.239558 0.000000 -0.003429
v 0.000030 0.000000 -0.452421
v -0.631414 1.000000 0.614908
v 0.667013 1.000000 0.616564
v -0.000106 1.000000 -0.629145
v -0.658086 1.000000 0.611128
v 0.527573 1.000000 0.533896
v -0.524621 1.000000 0.533001
v -0.285732 1.000000 0.082072
v 0.286382 1.000000 0.080654
v 0.242742 1.000000 -0.002022
v -0.239558 1.000000 -0.003429
v 0.000030 1.000000 -0.452421
vn 0.000000 -1.000000 0.000000
vn 0.000000 -1.000000 0.000000
vn 0.000000 -1.000000 0.000000
vn 0.000000 -1.000000 0.000000
vn 0.000000 -1.000000 0.000000
vn 0.000000 -1.000000 0.000000
vn 0.000000 -1.000000 0.000000
vn 0.000000 -1.000000 0.000000
vn 0.000000 -1.000000 0.000000
vn 0.000000 -1.000000 0.000000
vn 0.000000 -1.000000 0.000000
vn -0.004102 0.000000 0.999992
vn -0.001275 0.000000 0.999999
vn -0.004102 0.000000 0.999992
vn -0.001275 0.000000 0.999999
vn 0.881547 0.000000 -0.472097
vn 0.881547 0.000000 -0.472097
vn 0.881546 0.000000 -0.472097
vn 0.881546 0.000000 -0.472097
vn -0.883386 0.000000 -0.468647
vn -0.883386 0.000000 -0.468647
vn -0.883386 0.000000 -0.468647
vn -0.883386 0.000000 -0.468647
vn -0.140305 0.000000 0.990108
vn -0.140304 0.000000 0.990108
vn 0.000851 0.000000 -1.000000
vn 0.000851 0.000000 -1.000000
vn 0.000851 0.000000 -1.000000
vn 0.000851 0.000000 -1.000000
vn 0.883657 0.000000 0.468136
vn 0.883657 0.000000 0.468136
vn 0.883657 0.000000 0.468136
vn 0.883657 0.000000 0.468136
vn 0.002478 0.000000 0.999997
vn 0.002478 0.000000 0.999997
vn 0.002478 0.000000 0.999997
vn 0.002478 0.000000 0.999997
vn -0.882788 0.000000 0.469771
vn -0.882788 0.000000 0.469771
vn -0.882788 0.000000 0.469771
vn -0.882788 0.000000 0.469771
vn 0.002917 0.000000 -0.999996
vn 0.002917 0.000000 -0.999996
vn 0.002917 0.000000 -0.999996
vn 0.002917 0.000000 -0.999996
vn 0.882251 0.000000 0.470780
vn 0.882251 0.000000 0.470780
vn 0.882250 0.000000 0.470781
vn 0.882250 0.000000 0.470781
vn -0.880316 0.000000 0.474388
vn -0.880316 0.000000 0.474388
vn -0.880316 0.000000 0.474387
vn -0.880316 0.000000 0.474387
vn 0.000000 1.000000 0.000000
vn 0.000000 1.000000 0.000000
vn 0.000000 1.000000 0.000000
vn 0.000000 1.000000 0.000000
vn 0.000000 1.000000 0.000000
vn 0.000000 1.000000 0.000000
vn 0.000000 1.000000 0.000000
vn 0.000000 1.000000 0.000000
vn 0.000000 1.000000 0.000000
vn 0.000000 1.000000 0.000000
vn 0.000000 1.000000 0.000000
s 1
g svgMesh14
usemtl svgBlinn2SG
f 4//1 3//2 1//3
f 1//3 3//2 6//4
f 6//4 3//2 7//5
f 1//3 6//4 2//6
f 6//4 5//7 2//6
f 2//6 5//7 3//2
f 5//7 8//8 3//2
f 7//5 3//2 10//9
f 10//9 3//2 11//10
f 7//5 10//9 8//8
f 10//9 9//11 8//8
f 8//8 9//11 3//2
f 3//2 9//11 11//10
s 2
f 1//12 2//13 12//14
f 12//14 2//13 13//15
s 3
f 2//16 3//17 13//18
f 13//18 3//17 14//19
s 4
f 3//20 4//21 14//22
f 14//22 4//21 15//23
s 2
f 4//24 1//12 15//25
f 15//25 1//12 12//14
s 5
f 5//26 6//27 16//28
f 16//28 6//27 17//29
s 6
f 6//30 7//31 17//32
f 17//32 7//31 18//33
s 7
f 7//34 8//35 18//36
f 18//36 8//35 19//37
s 8
f 8//38 5//39 19//40
f 19//40 5//39 16//41
s 9
f 9//42 10//43 20//44
f 20//44 10//43 21//45
s 10
f 10//46 11//47 21//48
f 21//48 11//47 22//49
s 11
f 11//50 9//51 22//52
f 22//52 9//51 20//53
s 12
f 15//54 12//55 14//56
f 14//56 22//57 13//58
f 22//57 20//59 13//58
f 14//56 12//55 22//57
f 22//57 12//55 21//60
f 13//58 20//59 16//61
f 16//61 20//59 19//62
f 13//58 16//61 12//55
f 16//61 17//63 12//55
f 19//62 20//59 18//64
f 20//59 21//60 18//64
f 21//60 12//55 18//64
f 12//55 17//63 18//64
