# This file uses centimeters as units for non-parametric coordinates.

mtllib Repetition.mtl
g default
v -0.050980 0.000000 0.448131
v -0.002445 0.000000 0.450878
v 0.183794 0.000000 0.412651
v 0.336235 0.000000 0.303565
v 0.433252 0.000000 0.139096
v 0.445034 0.000000 0.095458
v 0.453308 0.000000 0.048930
v 0.456432 0.000000 -0.004861
v 0.373763 0.000000 -0.004861
v 0.373735 0.000000 0.008680
v 0.369605 0.000000 0.049301
v 0.279697 0.000000 0.242478
v 0.106819 0.000000 0.352684
v -0.106563 0.000000 0.352850
v -0.182906 0.000000 0.319949
v -0.251855 0.000000 0.269687
v -0.307071 0.000000 0.206684
v -0.372681 0.000000 0.000688
v -0.317733 0.000000 -0.199931
v -0.156290 0.000000 -0.343822
v -0.109741 0.000000 -0.361207
v -0.058514 0.000000 -0.373553
v -0.013341 0.000000 -0.378276
v 0.000080 0.000000 -0.378305
v 0.001744 0.000000 -0.336433
v 0.097335 0.000000 -0.411134
v 0.104367 0.000000 -0.418128
v 0.097335 0.000000 -0.425122
v 0.001744 0.000000 -0.499852
v 0.000080 0.000000 -0.458122
v -0.051262 0.000000 -0.454942
v -0.140787 0.000000 -0.434943
v -0.265774 0.000000 -0.370109
v -0.364917 0.000000 -0.270966
v -0.429751 0.000000 -0.145979
v -0.449593 0.000000 0.049177
v -0.387251 0.000000 0.231133
v -0.251958 0.000000 0.372943
v -0.188771 0.000000 0.408809
v -0.122473 0.000000 0.433610
v -0.050980 1.000000 0.448131
v -0.002445 1.000000 0.450878
v 0.183794 1.000000 0.412651
v 0.336235 1.000000 0.303565
v 0.433252 1.000000 0.139096
v 0.445034 1.000000 0.095458
v 0.453308 1.000000 0.048930
v 0.456432 1.000000 -0.004861
v 0.373763 1.000000 -0.004861
v 0.373735 1.000000 0.008680
v 0.369605 1.000000 0.049301
v 0.279697 1.000000 0.242478
v 0.106819 1.000000 0.352684
v -0.106563 1.000000 0.352850
v -0.182906 1.000000 0.319949
v -0.251855 1.000000 0.269687
v -0.307071 1.000000 0.206684
v -0.372681 1.000000 0.000688
v -0.317733 1.000000 -0.199931
v -0.156290 1.000000 -0.343822
v -0.109741 1.000000 -0.361207
v -0.058514 1.000000 -0.373553
v -0.013341 1.000000 -0.378276
v 0.000080 1.000000 -0.378305
v 0.001744 1.000000 -0.336433
v 0.097335 1.000000 -0.411134
v 0.104367 1.000000 -0.418128
v 0.097335 1.000000 -0.425122
v 0.001744 1.000000 -0.499852
v 0.000080 1.000000 -0.458122
v -0.051262 1.000000 -0.454942
v -0.140787 1.000000 -0.434943
v -0.265774 1.000000 -0.370109
v -0.364917 1.000000 -0.270966
v -0.429751 1.000000 -0.145979
v -0.449593 1.000000 0.049177
v -0.387251 1.000000 0.231133
v -0.251958 1.000000 0.372943
v -0.188771 1.000000 0.408809
v -0.122473 1.000000 0.433610
vt 0.303332 0.414125
vt 0.312004 0.414125
vt 0.312004 0.612854
vt 0.303332 0.612854
vt 0.321251 0.414125
vt 0.321251 0.612854
vt 0.270647 0.414125
vt 0.270647 0.612854
vt 0.331940 0.414125
vt 0.331940 0.612854
vt 0.248969 0.414125
vt 0.248969 0.612854
vt 0.431962 0.612854
vt 0.429271 0.612854
vt 0.429271 0.414125
vt 0.431962 0.414125
vt 0.421198 0.612854
vt 0.421198 0.414125
vt 0.382808 0.612854
vt 0.382808 0.414125
vt 0.360907 0.612854
vt 0.360907 0.414125
vt 0.525560 0.414125
vt 0.566497 0.414125
vt 0.566497 0.612854
vt 0.525560 0.612854
vt 0.606366 0.414125
vt 0.606366 0.612854
vt 0.513039 0.414125
vt 0.513039 0.612854
vt 0.634961 0.414125
vt 0.634961 0.612854
vt 0.503051 0.414125
vt 0.503051 0.612854
vt 0.687275 0.608688
vt 0.678954 0.608688
vt 0.678954 0.409958
vt 0.687275 0.409958
vt 0.740550 0.608688
vt 0.732258 0.608688
vt 0.732258 0.409958
vt 0.740550 0.409958
vt 0.890149 0.811056
vt 0.865311 0.811056
vt 0.865311 0.612327
vt 0.890149 0.612327
vt 0.826528 0.811056
vt 0.826528 0.612327
vt 0.909852 0.811056
vt 0.909852 0.612327
vt 0.790368 0.811056
vt 0.790368 0.612327
vt 0.762186 0.811056
vt 0.762186 0.612327
vt 0.196515 0.414125
vt 0.206161 0.414125
vt 0.206161 0.612854
vt 0.196515 0.612854
vt 0.243172 0.414125
vt 0.243172 0.612854
vt 0.182308 0.414125
vt 0.182308 0.612854
vt 0.169132 0.414125
vt 0.169132 0.612854
vt 0.156575 0.414125
vt 0.156575 0.612854
vt 0.354237 0.612854
vt 0.337809 0.612854
vt 0.337809 0.414125
vt 0.354237 0.414125
vt 0.496663 0.612854
vt 0.454258 0.612854
vt 0.454258 0.414125
vt 0.496663 0.414125
vt 0.439086 0.612854
vt 0.439086 0.414125
vt 0.641641 0.409958
vt 0.650892 0.409958
vt 0.650892 0.608688
vt 0.641641 0.608688
vt 0.661072 0.409958
vt 0.661072 0.608688
vt 0.670049 0.409958
vt 0.670049 0.608688
vt 0.672716 0.409958
vt 0.672716 0.608688
vt 0.799305 0.608688
vt 0.789102 0.608688
vt 0.789102 0.409958
vt 0.799305 0.409958
vt 0.771310 0.608688
vt 0.771310 0.409958
vt 0.746472 0.608688
vt 0.746472 0.409958
vt 0.146068 0.802000
vt 0.132893 0.797071
vt 0.120336 0.789943
vt 0.093449 0.761761
vt 0.081060 0.725601
vt 0.085003 0.686818
vt 0.097887 0.661980
vt 0.117590 0.642277
vt 0.142429 0.629393
vt 0.160220 0.625418
vt 0.170423 0.624786
vt 0.170754 0.616493
vt 0.189750 0.631344
vt 0.191148 0.632734
vt 0.189750 0.634124
vt 0.170754 0.648969
vt 0.170423 0.640648
vt 0.167756 0.640654
vt 0.158779 0.641592
vt 0.148598 0.644046
vt 0.139348 0.647501
vt 0.107264 0.676096
vt 0.096344 0.715965
vt 0.109383 0.756903
vt 0.120356 0.769423
vt 0.134058 0.779412
vt 0.149230 0.785950
vt 0.191635 0.785917
vt 0.225991 0.764016
vt 0.243858 0.725626
vt 0.244679 0.717553
vt 0.244685 0.714862
vt 0.261113 0.714862
vt 0.260493 0.725552
vt 0.258848 0.734799
vt 0.256507 0.743471
vt 0.237227 0.776156
vt 0.206932 0.797834
vt 0.169921 0.805431
vt 0.160276 0.804885
vt 0.081032 0.809616
vt 0.090678 0.809070
vt 0.127689 0.816667
vt 0.157983 0.838346
vt 0.177263 0.871030
vt 0.179605 0.879703
vt 0.181249 0.888949
vt 0.181870 0.899639
vt 0.165441 0.899639
vt 0.165436 0.896948
vt 0.164615 0.888875
vt 0.146747 0.850485
vt 0.112392 0.828584
vt 0.069986 0.828551
vt 0.054815 0.835090
vt 0.041112 0.845078
vt 0.030139 0.857599
vt 0.017101 0.898536
vt 0.028020 0.938405
vt 0.060104 0.967000
vt 0.069355 0.970455
vt 0.079535 0.972909
vt 0.088512 0.973847
vt 0.091179 0.973853
vt 0.091510 0.965532
vt 0.110507 0.980377
vt 0.111904 0.981767
vt 0.110507 0.983157
vt 0.091510 0.998008
vt 0.091179 0.989715
vt 0.080976 0.989083
vt 0.063185 0.985109
vt 0.038346 0.972224
vt 0.018644 0.952522
vt 0.005759 0.927683
vt 0.001816 0.888900
vt 0.014205 0.852740
vt 0.041092 0.824558
vt 0.053649 0.817430
vt 0.066824 0.812502
vt 0.693168 0.409958
vt 0.708013 0.409958
vt 0.708013 0.608688
vt 0.693168 0.608688
vt 0.709403 0.409958
vt 0.709403 0.608688
vt 0.710793 0.409958
vt 0.710793 0.608688
vt 0.725644 0.409958
vt 0.725644 0.608688
vn 0.000000 -1.000000 0.000000
vn 0.000000 -1.000000 0.000000
vn 0.000000 -1.000000 0.000000
vn 0.000000 -1.000000 0.000000
vn 0.000000 -1.000000 0.000000
vn 0.000000 -1.000000 0.000000
vn 0.000000 -1.000000 0.000000
vn 0.000000 -1.000000 0.000000
vn 0.000000 -1.000000 0.000000
vn 0.000000 -1.000000 0.000000
vn 0.000000 -1.000000 0.000000
vn 0.000000 -1.000000 0.000000
vn 0.000000 -1.000000 0.000000
vn 0.000000 -1.000000 0.000000
vn 0.000000 -1.000000 0.000000
vn 0.000000 -1.000000 0.000000
vn 0.000000 -1.000000 0.000000
vn 0.000000 -1.000000 0.000000
vn 0.000000 -1.000000 0.000000
vn 0.000000 -1.000000 0.000000
vn 0.000000 -1.000000 0.000000
vn 0.000000 -1.000000 0.000000
vn 0.000000 -1.000000 0.000000
vn 0.000000 -1.000000 0.000000
vn 0.000000 -1.000000 0.000000
vn 0.000000 -1.000000 0.000000
vn 0.000000 -1.000000 0.000000
vn 0.000000 -1.000000 0.000000
vn 0.000000 -1.000000 0.000000
vn 0.000000 -1.000000 0.000000
vn 0.000000 -1.000000 0.000000
vn 0.000000 -1.000000 0.000000
vn 0.000000 -1.000000 0.000000
vn 0.000000 -1.000000 0.000000
vn 0.000000 -1.000000 0.000000
vn 0.000000 -1.000000 0.000000
vn 0.000000 -1.000000 0.000000
vn 0.000000 -1.000000 0.000000
vn 0.000000 -1.000000 0.000000
vn 0.000000 -1.000000 0.000000
vn -0.142401 0.000000 0.989809
vn 0.149430 0.000000 0.988772
vn -0.142402 0.000000 0.989809
vn 0.149430 0.000000 0.988772
vn 0.398865 0.000000 0.917010
vn 0.398865 0.000000 0.917010
vn 0.738902 0.000000 0.673813
vn 0.738902 0.000000 0.673813
vn 0.886198 0.000000 0.463307
vn 0.886200 0.000000 0.463303
vn 0.976142 0.000000 0.217135
vn 0.976144 0.000000 0.217125
vn 0.993607 0.000000 0.112895
vn 0.993608 0.000000 0.112886
vn 0.998318 0.000000 0.057983
vn 0.998319 0.000000 0.057966
vn 0.000000 0.000000 -1.000000
vn 0.000000 0.000000 -1.000000
vn 0.000000 0.000000 -1.000000
vn 0.000000 0.000000 -1.000000
vn -0.999998 0.000000 -0.002113
vn -0.997065 0.000000 -0.076563
vn -0.999998 0.000000 -0.002113
vn -0.997066 0.000000 -0.076546
vn -0.927765 0.000000 -0.373165
vn -0.927767 0.000000 -0.373162
vn -0.906617 0.000000 -0.421955
vn -0.906617 0.000000 -0.421955
vn -0.537545 0.000000 -0.843235
vn -0.537545 0.000000 -0.843235
vn -0.537547 0.000000 -0.843234
vn -0.537547 0.000000 -0.843234
vn -0.000775 0.000000 -1.000000
vn 0.112273 0.000000 -0.993677
vn -0.000775 0.000000 -1.000000
vn 0.112273 0.000000 -0.993677
vn 0.496765 0.000000 -0.867885
vn 0.496765 0.000000 -0.867885
vn 0.673934 0.000000 -0.738792
vn 0.673939 0.000000 -0.738787
vn 0.912203 0.000000 -0.409739
vn 0.912205 0.000000 -0.409734
vn 0.952837 0.000000 -0.303483
vn 0.952838 0.000000 -0.303480
vn 0.964478 0.000000 0.264163
vn 0.964478 0.000000 0.264164
vn 0.964477 0.000000 0.264167
vn 0.964477 0.000000 0.264167
vn 0.665361 0.000000 0.746522
vn 0.612765 0.000000 0.790265
vn 0.665361 0.000000 0.746522
vn 0.612765 0.000000 0.790265
vn 0.290926 0.000000 0.956746
vn 0.290926 0.000000 0.956746
vn 0.174357 0.000000 0.984683
vn 0.174357 0.000000 0.984683
vn 0.080822 0.000000 0.996729
vn 0.080822 0.000000 0.996729
vn 0.002132 0.000000 0.999998
vn 0.002132 0.000000 0.999998
vn -0.999210 0.000000 0.039735
vn -0.999210 0.000000 0.039735
vn -0.999211 0.000000 0.039713
vn -0.999211 0.000000 0.039713
vn 0.615751 0.000000 0.787941
vn 0.622815 0.000000 0.782369
vn 0.615755 0.000000 0.787938
vn 0.622822 0.000000 0.782364
vn 0.705133 0.000000 0.709075
vn 0.705181 0.000000 0.709028
vn 0.705253 0.000000 -0.708955
vn 0.622958 0.000000 -0.782256
vn 0.705206 0.000000 -0.709003
vn 0.622951 0.000000 -0.782261
vn 0.615896 0.000000 -0.787828
vn 0.615893 0.000000 -0.787830
vn -0.999206 0.000000 -0.039848
vn -0.999206 0.000000 -0.039849
vn -0.999205 0.000000 -0.039870
vn -0.999205 0.000000 -0.039871
vn -0.061829 0.000000 -0.998087
vn -0.162365 0.000000 -0.986731
vn -0.061829 0.000000 -0.998087
vn -0.162366 0.000000 -0.986731
vn -0.367757 0.000000 -0.929922
vn -0.367758 0.000000 -0.929921
vn -0.590463 0.000000 -0.807065
vn -0.590461 0.000000 -0.807066
vn -0.807066 0.000000 -0.590461
vn -0.807065 0.000000 -0.590463
vn -0.966756 0.000000 -0.255701
vn -0.966756 0.000000 -0.255701
vn -0.993710 0.000000 0.111989
vn -0.993710 0.000000 0.111989
vn -0.853543 0.000000 0.521022
vn -0.853543 0.000000 0.521022
vn -0.666979 0.000000 0.745077
vn -0.666979 0.000000 0.745077
vn -0.424264 0.000000 0.905538
vn -0.424264 0.000000 0.905538
vn -0.274420 0.000000 0.961610
vn -0.274422 0.000000 0.961609
vn 0.000000 1.000000 0.000000
vn 0.000000 1.000000 0.000000
vn 0.000000 1.000000 0.000000
vn 0.000000 1.000000 0.000000
vn 0.000000 1.000000 0.000000
vn 0.000000 1.000000 0.000000
vn 0.000000 1.000000 0.000000
vn 0.000000 1.000000 0.000000
vn 0.000000 1.000000 0.000000
vn 0.000000 1.000000 0.000000
vn 0.000000 1.000000 0.000000
vn 0.000000 1.000000 0.000000
vn 0.000000 1.000000 0.000000
vn 0.000000 1.000000 0.000000
vn 0.000000 1.000000 0.000000
vn 0.000000 1.000000 0.000000
vn 0.000000 1.000000 0.000000
vn 0.000000 1.000000 0.000000
vn 0.000000 1.000000 0.000000
vn 0.000000 1.000000 0.000000
vn 0.000000 1.000000 0.000000
vn 0.000000 1.000000 0.000000
vn 0.000000 1.000000 0.000000
vn 0.000000 1.000000 0.000000
vn 0.000000 1.000000 0.000000
vn 0.000000 1.000000 0.000000
vn 0.000000 1.000000 0.000000
vn 0.000000 1.000000 0.000000
vn 0.000000 1.000000 0.000000
vn 0.000000 1.000000 0.000000
vn 0.000000 1.000000 0.000000
vn 0.000000 1.000000 0.000000
vn 0.000000 1.000000 0.000000
vn 0.000000 1.000000 0.000000
vn 0.000000 1.000000 0.000000
vn 0.000000 1.000000 0.000000
vn 0.000000 1.000000 0.000000
vn 0.000000 1.000000 0.000000
vn 0.000000 1.000000 0.000000
vn 0.000000 1.000000 0.000000
s 1
g svgMesh8
usemtl svgBlinn5SG
f 29/106/1 28/107/2 30/105/3
f 25/110/4 24/111/5 26/109/6
f 8/127/7 7/128/8 9/126/9
f 9/126/9 7/128/8 10/125/10
f 10/125/10 7/128/8 11/124/11
f 7/128/8 6/129/12 11/124/11
f 11/124/11 6/129/12 12/123/13
f 6/129/12 5/130/14 12/123/13
f 5/130/14 4/131/15 12/123/13
f 4/131/15 3/132/16 12/123/13
f 12/123/13 3/132/16 13/122/17
f 3/132/16 2/133/18 13/122/17
f 13/122/17 2/133/18 14/121/19
f 2/133/18 1/134/20 14/121/19
f 1/134/20 40/95/21 14/121/19
f 40/95/21 39/96/22 14/121/19
f 14/121/19 39/96/22 15/120/23
f 39/96/22 38/97/24 15/120/23
f 15/120/23 38/97/24 16/119/25
f 38/97/24 37/98/26 16/119/25
f 16/119/25 37/98/26 17/118/27
f 27/108/28 26/109/6 28/107/2
f 17/118/27 37/98/26 18/117/29
f 37/98/26 36/99/30 18/117/29
f 36/99/30 35/100/31 18/117/29
f 18/117/29 35/100/31 19/116/32
f 35/100/31 34/101/33 19/116/32
f 19/116/32 34/101/33 20/115/34
f 34/101/33 33/102/35 20/115/34
f 33/102/35 32/103/36 20/115/34
f 20/115/34 32/103/36 21/114/37
f 32/103/36 31/104/38 21/114/37
f 21/114/37 31/104/38 22/113/39
f 22/113/39 31/104/38 23/112/40
f 31/104/38 30/105/3 23/112/40
f 23/112/40 30/105/3 24/111/5
f 28/107/2 26/109/6 30/105/3
f 30/105/3 26/109/6 24/111/5
s 4
f 1/55/41 2/56/42 41/58/43
f 41/58/43 2/56/42 42/57/44
f 2/56/42 3/59/45 42/57/44
f 42/57/44 3/59/45 43/60/46
f 3/11/45 4/7/47 43/12/46
f 43/12/46 4/7/47 44/8/48
f 4/7/47 5/1/49 44/8/48
f 44/8/48 5/1/49 45/4/50
f 5/1/49 6/2/51 45/4/50
f 45/4/50 6/2/51 46/3/52
f 6/2/51 7/5/53 46/3/52
f 46/3/52 7/5/53 47/6/54
f 7/5/53 8/9/55 47/6/54
f 47/6/54 8/9/55 48/10/56
s 5
f 8/67/57 9/68/58 48/70/59
f 48/70/59 9/68/58 49/69/60
s 6
f 9/13/61 10/14/62 49/16/63
f 49/16/63 10/14/62 50/15/64
f 10/14/62 11/17/65 50/15/64
f 50/15/64 11/17/65 51/18/66
f 11/17/65 12/19/67 51/18/66
f 51/18/66 12/19/67 52/20/68
s 7
f 12/19/69 13/21/70 52/20/71
f 52/20/71 13/21/70 53/22/72
s 8
f 13/71/73 14/72/74 53/74/75
f 53/74/75 14/72/74 54/73/76
f 14/72/74 15/75/77 54/73/76
f 54/73/76 15/75/77 55/76/78
f 15/33/77 16/29/79 55/34/78
f 55/34/78 16/29/79 56/30/80
f 16/29/79 17/23/81 56/30/80
f 56/30/80 17/23/81 57/26/82
f 17/23/81 18/24/83 57/26/82
f 57/26/82 18/24/83 58/25/84
s 9
f 18/24/85 19/27/86 58/25/87
f 58/25/87 19/27/86 59/28/88
s 10
f 19/27/89 20/31/90 59/28/91
f 59/28/91 20/31/90 60/32/92
f 20/77/90 21/78/93 60/80/92
f 60/80/92 21/78/93 61/79/94
f 21/78/93 22/81/95 61/79/94
f 61/79/94 22/81/95 62/82/96
f 22/81/95 23/83/97 62/82/96
f 62/82/96 23/83/97 63/84/98
f 23/83/97 24/85/99 63/84/98
f 63/84/98 24/85/99 64/86/100
s 11
f 24/35/101 25/36/102 64/38/103
f 64/38/103 25/36/102 65/37/104
s 12
f 25/175/105 26/176/106 65/178/107
f 65/178/107 26/176/106 66/177/108
f 26/176/106 27/179/109 66/177/108
f 66/177/108 27/179/109 67/180/110
s 13
f 27/179/111 28/181/112 67/180/113
f 67/180/113 28/181/112 68/182/114
f 28/181/112 29/183/115 68/182/114
f 68/182/114 29/183/115 69/184/116
s 14
f 29/39/117 30/40/118 69/42/119
f 69/42/119 30/40/118 70/41/120
s 4
f 30/87/121 31/88/122 70/90/123
f 70/90/123 31/88/122 71/89/124
f 31/88/122 32/91/125 71/89/124
f 71/89/124 32/91/125 72/92/126
f 32/91/125 33/93/127 72/92/126
f 72/92/126 33/93/127 73/94/128
f 33/49/127 34/43/129 73/50/128
f 73/50/128 34/43/129 74/46/130
f 34/43/129 35/44/131 74/46/130
f 74/46/130 35/44/131 75/45/132
f 35/44/131 36/47/133 75/45/132
f 75/45/132 36/47/133 76/48/134
f 36/47/133 37/51/135 76/48/134
f 76/48/134 37/51/135 77/52/136
f 37/51/135 38/53/137 77/52/136
f 77/52/136 38/53/137 78/54/138
f 38/65/137 39/63/139 78/66/138
f 78/66/138 39/63/139 79/64/140
f 39/63/139 40/61/141 79/64/140
f 79/64/140 40/61/141 80/62/142
f 40/61/141 1/55/41 80/62/142
f 80/62/142 1/55/41 41/58/43
s 16
f 65/159/143 66/160/144 64/158/145
f 69/163/146 70/164/147 68/162/148
f 48/142/149 49/143/150 47/141/151
f 49/143/150 50/144/152 47/141/151
f 50/144/152 51/145/153 47/141/151
f 47/141/151 51/145/153 46/140/154
f 51/145/153 52/146/155 46/140/154
f 46/140/154 52/146/155 45/139/156
f 45/139/156 52/146/155 44/138/157
f 44/138/157 52/146/155 43/137/158
f 52/146/155 53/147/159 43/137/158
f 43/137/158 53/147/159 42/136/160
f 53/147/159 54/148/161 42/136/160
f 42/136/160 54/148/161 41/135/162
f 41/135/162 54/148/161 80/174/163
f 80/174/163 54/148/161 79/173/164
f 54/148/161 55/149/165 79/173/164
f 79/173/164 55/149/165 78/172/166
f 55/149/165 56/150/167 78/172/166
f 78/172/166 56/150/167 77/171/168
f 56/150/167 57/151/169 77/171/168
f 57/151/169 58/152/170 77/171/168
f 77/171/168 58/152/170 76/170/171
f 76/170/171 58/152/170 75/169/172
f 58/152/170 59/153/173 75/169/172
f 75/169/172 59/153/173 74/168/174
f 59/153/173 60/154/175 74/168/174
f 74/168/174 60/154/175 73/167/176
f 73/167/176 60/154/175 72/166/177
f 60/154/175 61/155/178 72/166/177
f 72/166/177 61/155/178 71/165/179
f 61/155/178 62/156/180 71/165/179
f 62/156/180 63/157/181 71/165/179
f 71/165/179 63/157/181 70/164/147
f 63/157/181 64/158/145 70/164/147
f 67/161/182 68/162/148 66/160/144
f 66/160/144 68/162/148 64/158/145
f 64/158/145 68/162/148 70/164/147
