# This file uses centimeters as units for non-parametric coordinates.

mtllib Writing.mtl
g default
v -0.363120 0.000000 0.539509
v 0.363790 0.000000 0.539509
v 0.363790 0.000000 -0.190182
v 0.545538 0.000000 -0.372068
v 0.492712 0.000000 -0.424675
v 0.345972 0.000000 -0.277934
v 0.082981 0.000000 -0.540879
v -0.363120 0.000000 -0.540879
v 0.281122 0.000000 0.456841
v -0.280451 0.000000 0.456841
v -0.280451 0.000000 -0.458211
v -0.001090 0.000000 -0.458211
v -0.001090 0.000000 -0.175999
v 0.244428 0.000000 -0.175999
v 0.139298 0.000000 -0.071514
v 0.119379 0.000000 0.002407
v 0.122332 0.000000 0.001951
v 0.188178 0.000000 -0.014938
v 0.281122 0.000000 -0.107416
v 0.018865 0.000000 0.388426
v 0.181350 0.000000 0.388426
v 0.181350 0.000000 0.348517
v 0.018865 0.000000 0.348517
v -0.186381 0.000000 0.188882
v 0.181350 0.000000 0.188882
v 0.181350 0.000000 0.148973
v -0.186381 0.000000 0.148973
v -0.186381 0.000000 0.106214
v 0.181350 0.000000 0.106214
v 0.181350 0.000000 0.066305
v -0.186381 0.000000 0.066305
v -0.186381 0.000000 0.023545
v 0.098682 0.000000 0.023545
v 0.098682 0.000000 -0.016363
v -0.186381 0.000000 -0.016363
v -0.186381 0.000000 -0.059123
v -0.001090 0.000000 -0.059123
v -0.001090 0.000000 -0.099032
v -0.186381 0.000000 -0.099032
v -0.186381 0.000000 -0.218758
v -0.023895 0.000000 -0.218758
v -0.023895 0.000000 -0.258667
v -0.186381 0.000000 -0.258667
v -0.186381 0.000000 -0.301426
v -0.078057 0.000000 -0.301426
v -0.078057 0.000000 -0.341335
v -0.186381 0.000000 -0.341335
v -0.363120 1.000000 0.539509
v 0.363790 1.000000 0.539509
v 0.363790 1.000000 -0.190182
v 0.545538 1.000000 -0.372068
v 0.492712 1.000000 -0.424675
v 0.345972 1.000000 -0.277934
v 0.082981 1.000000 -0.540879
v -0.363120 1.000000 -0.540879
v 0.281122 1.000000 0.456841
v -0.280451 1.000000 0.456841
v -0.280451 1.000000 -0.458211
v -0.001090 1.000000 -0.458211
v -0.001090 1.000000 -0.175999
v 0.244428 1.000000 -0.175999
v 0.139298 1.000000 -0.071514
v 0.119379 1.000000 0.002407
v 0.122332 1.000000 0.001951
v 0.188178 1.000000 -0.014938
v 0.281122 1.000000 -0.107416
v 0.018865 1.000000 0.388426
v 0.181350 1.000000 0.388426
v 0.181350 1.000000 0.348517
v 0.018865 1.000000 0.348517
v -0.186381 1.000000 0.188882
v 0.181350 1.000000 0.188882
v 0.181350 1.000000 0.148973
v -0.186381 1.000000 0.148973
v -0.186381 1.000000 0.106214
v 0.181350 1.000000 0.106214
v 0.181350 1.000000 0.066305
v -0.186381 1.000000 0.066305
v -0.186381 1.000000 0.023545
v 0.098682 1.000000 0.023545
v 0.098682 1.000000 -0.016363
v -0.186381 1.000000 -0.016363
v -0.186381 1.000000 -0.059123
v -0.001090 1.000000 -0.059123
v -0.001090 1.000000 -0.099032
v -0.186381 1.000000 -0.099032
v -0.186381 1.000000 -0.218758
v -0.023895 1.000000 -0.218758
v -0.023895 1.000000 -0.258667
v -0.186381 1.000000 -0.258667
v -0.186381 1.000000 -0.301426
v -0.078057 1.000000 -0.301426
v -0.078057 1.000000 -0.341335
v -0.186381 1.000000 -0.341335
vt 0.802293 0.222901
vt 0.950409 0.222901
vt 0.950409 0.425887
vt 0.802293 0.425887
vt 0.987330 0.222901
vt 0.987330 0.425887
vt 0.998008 0.222901
vt 0.998008 0.425887
vt 0.193184 0.221141
vt 0.193184 0.001838
vt 0.396170 0.001838
vt 0.396170 0.221141
vt 0.310432 0.225132
vt 0.496174 0.225132
vt 0.496174 0.428118
vt 0.310432 0.428118
vt 0.241455 0.428118
vt 0.184170 0.428118
vt 0.184170 0.225132
vt 0.241455 0.225132
vt 0.100854 0.428118
vt 0.085849 0.428118
vt 0.085849 0.225132
vt 0.100854 0.225132
vt 0.122063 0.428118
vt 0.122063 0.225132
vt 0.116528 0.635095
vt 0.001992 0.635095
vt 0.001992 0.432109
vt 0.116528 0.432109
vt 0.163950 0.432109
vt 0.172051 0.432109
vt 0.172051 0.635095
vt 0.163950 0.635095
vt 0.228570 0.635095
vt 0.220470 0.635095
vt 0.220470 0.432109
vt 0.228570 0.432109
vt 0.317917 0.432109
vt 0.326018 0.432109
vt 0.326018 0.635095
vt 0.317917 0.635095
vt 0.423466 0.635095
vt 0.415365 0.635095
vt 0.415365 0.432109
vt 0.423466 0.432109
vt 0.512812 0.432109
vt 0.520913 0.432109
vt 0.520913 0.635095
vt 0.512812 0.635095
vt 0.618361 0.635095
vt 0.610260 0.635095
vt 0.610260 0.432109
vt 0.618361 0.432109
vt 0.690167 0.429878
vt 0.698268 0.429878
vt 0.698268 0.632864
vt 0.690167 0.632864
vt 0.778175 0.632864
vt 0.770074 0.632864
vt 0.770074 0.429878
vt 0.778175 0.429878
vt 0.830492 0.429878
vt 0.838593 0.429878
vt 0.838593 0.632864
vt 0.830492 0.632864
vt 0.899010 0.632864
vt 0.890909 0.632864
vt 0.890909 0.429878
vt 0.899010 0.429878
vt 0.947429 0.429878
vt 0.955530 0.429878
vt 0.955530 0.632864
vt 0.947429 0.632864
vt 0.958890 0.839841
vt 0.950790 0.839841
vt 0.950790 0.636855
vt 0.958890 0.636855
vt 0.908430 0.636855
vt 0.916531 0.636855
vt 0.916531 0.839841
vt 0.908430 0.839841
vt 0.874171 0.839841
vt 0.866070 0.839841
vt 0.866070 0.636855
vt 0.874171 0.636855
vt 0.818798 0.001838
vt 0.966350 0.001838
vt 0.966350 0.204823
vt 0.818798 0.204823
vt 0.712988 0.425887
vt 0.622436 0.425887
vt 0.622436 0.222901
vt 0.712988 0.222901
vt 0.766371 0.425887
vt 0.766371 0.222901
vt 0.796157 0.425887
vt 0.796157 0.222901
vt 0.616301 0.428118
vt 0.502309 0.428118
vt 0.502309 0.225132
vt 0.616301 0.225132
vt 0.247590 0.225132
vt 0.304297 0.225132
vt 0.304297 0.428118
vt 0.247590 0.428118
vt 0.128198 0.225132
vt 0.178035 0.225132
vt 0.178035 0.428118
vt 0.128198 0.428118
vt 0.046882 0.225132
vt 0.047482 0.225132
vt 0.047482 0.428118
vt 0.046882 0.428118
vt 0.060848 0.225132
vt 0.060848 0.428118
vt 0.079714 0.225132
vt 0.079714 0.428118
vt 0.123022 0.432109
vt 0.156004 0.432109
vt 0.156004 0.635095
vt 0.123022 0.635095
vt 0.212524 0.635095
vt 0.179542 0.635095
vt 0.179542 0.432109
vt 0.212524 0.432109
vt 0.236061 0.432109
vt 0.310705 0.432109
vt 0.310705 0.635095
vt 0.236061 0.635095
vt 0.408153 0.635095
vt 0.333509 0.635095
vt 0.333509 0.432109
vt 0.408153 0.432109
vt 0.430956 0.432109
vt 0.505601 0.432109
vt 0.505601 0.635095
vt 0.430956 0.635095
vt 0.603048 0.635095
vt 0.528404 0.635095
vt 0.528404 0.432109
vt 0.603048 0.432109
vt 0.625852 0.429878
vt 0.683715 0.429878
vt 0.683715 0.632864
vt 0.625852 0.632864
vt 0.763622 0.632864
vt 0.705759 0.632864
vt 0.705759 0.429878
vt 0.763622 0.429878
vt 0.785666 0.429878
vt 0.823277 0.429878
vt 0.823277 0.632864
vt 0.785666 0.632864
vt 0.883695 0.632864
vt 0.846083 0.632864
vt 0.846083 0.429878
vt 0.883695 0.429878
vt 0.906501 0.429878
vt 0.939483 0.429878
vt 0.939483 0.632864
vt 0.906501 0.632864
vt 0.998008 0.632864
vt 0.965026 0.632864
vt 0.965026 0.429878
vt 0.998008 0.429878
vt 0.922666 0.636855
vt 0.944654 0.636855
vt 0.944654 0.839841
vt 0.922666 0.839841
vt 0.902294 0.839841
vt 0.880306 0.839841
vt 0.880306 0.636855
vt 0.902294 0.636855
vt 0.001992 0.001838
vt 0.092544 0.001838
vt 0.145927 0.055212
vt 0.175714 0.025425
vt 0.186436 0.036104
vt 0.149544 0.073024
vt 0.149544 0.221141
vt 0.001992 0.221141
vt 0.132764 0.089824
vt 0.113898 0.108596
vt 0.100532 0.112024
vt 0.099932 0.112117
vt 0.103976 0.097112
vt 0.125315 0.075903
vt 0.075479 0.075903
vt 0.075479 0.018618
vt 0.018773 0.018618
vt 0.018773 0.204360
vt 0.132764 0.204360
vt 0.403671 0.001838
vt 0.551223 0.001838
vt 0.551223 0.149954
vt 0.588116 0.186875
vt 0.577393 0.197553
vt 0.547606 0.167767
vt 0.494223 0.221141
vt 0.403671 0.221141
vt 0.534443 0.018618
vt 0.420452 0.018618
vt 0.420452 0.204360
vt 0.477158 0.204360
vt 0.477158 0.147075
vt 0.526994 0.147075
vt 0.505655 0.125867
vt 0.501611 0.110862
vt 0.502211 0.110954
vt 0.515577 0.114382
vt 0.534443 0.133154
vt 0.126920 0.879045
vt 0.126920 0.846063
vt 0.135021 0.846063
vt 0.135021 0.879045
vt 0.142512 0.879045
vt 0.142512 0.846063
vt 0.150612 0.846063
vt 0.150612 0.879045
vt 0.001992 0.920707
vt 0.001992 0.846063
vt 0.010093 0.846063
vt 0.010093 0.920707
vt 0.017779 0.920707
vt 0.017779 0.846063
vt 0.025879 0.846063
vt 0.025879 0.920707
vt 0.033370 0.920707
vt 0.033370 0.846063
vt 0.041471 0.846063
vt 0.041471 0.920707
vt 0.048962 0.920707
vt 0.048962 0.846063
vt 0.057063 0.846063
vt 0.057063 0.920707
vt 0.064553 0.903927
vt 0.064553 0.846063
vt 0.072654 0.846063
vt 0.072654 0.903927
vt 0.080145 0.903927
vt 0.080145 0.846063
vt 0.088246 0.846063
vt 0.088246 0.903927
vt 0.095737 0.883675
vt 0.095737 0.846063
vt 0.103838 0.846063
vt 0.103838 0.883675
vt 0.111328 0.883675
vt 0.111328 0.846063
vt 0.119429 0.846063
vt 0.119429 0.883675
vt 0.158103 0.879045
vt 0.158103 0.846063
vt 0.166204 0.846063
vt 0.166204 0.879045
vt 0.173695 0.879045
vt 0.173695 0.846063
vt 0.181796 0.846063
vt 0.181796 0.879045
vt 0.189286 0.868051
vt 0.189286 0.846063
vt 0.197387 0.846063
vt 0.197387 0.868051
vt 0.204878 0.868051
vt 0.204878 0.846063
vt 0.212979 0.846063
vt 0.212979 0.868051
vn 0.000000 -1.000000 0.000000
vn 0.000000 -1.000000 0.000000
vn 0.000000 -1.000000 0.000000
vn 0.000000 -1.000000 0.000000
vn 0.000000 -1.000000 0.000000
vn 0.000000 -1.000000 0.000000
vn 0.000000 -1.000000 0.000000
vn 0.000000 -1.000000 0.000000
vn 0.000000 -1.000000 0.000000
vn 0.000000 -1.000000 0.000000
vn 0.000000 -1.000000 0.000000
vn 0.000000 -1.000000 0.000000
vn 0.000000 -1.000000 0.000000
vn 0.000000 -1.000000 0.000000
vn 0.000000 -1.000000 0.000000
vn 0.000000 -1.000000 0.000000
vn 0.000000 -1.000000 0.000000
vn 0.000000 -1.000000 0.000000
vn 0.000000 -1.000000 0.000000
vn 0.000000 0.000000 1.000000
vn 0.000000 0.000000 1.000000
vn 0.000000 0.000000 1.000000
vn 0.000000 0.000000 1.000000
vn 1.000000 0.000000 0.000000
vn 1.000000 0.000000 0.000000
vn 1.000000 0.000000 0.000000
vn 1.000000 0.000000 0.000000
vn 0.707376 0.000000 0.706837
vn 0.707376 0.000000 0.706838
vn 0.707375 0.000000 0.706839
vn 0.707374 0.000000 0.706839
vn 0.705633 0.000000 -0.708578
vn 0.705633 0.000000 -0.708578
vn 0.705633 0.000000 -0.708578
vn 0.705633 0.000000 -0.708578
vn -0.707107 0.000000 -0.707107
vn -0.707107 0.000000 -0.707107
vn -0.707107 0.000000 -0.707107
vn -0.707107 0.000000 -0.707107
vn 0.707045 0.000000 -0.707169
vn 0.707045 0.000000 -0.707169
vn 0.707045 0.000000 -0.707169
vn 0.707045 0.000000 -0.707169
vn 0.000000 0.000000 -1.000000
vn 0.000000 0.000000 -1.000000
vn 0.000000 0.000000 -1.000000
vn 0.000000 0.000000 -1.000000
vn -1.000000 0.000000 0.000000
vn -1.000000 0.000000 0.000000
vn -1.000000 0.000000 0.000000
vn -1.000000 0.000000 0.000000
vn 0.000000 0.000000 -1.000000
vn 0.000000 0.000000 -1.000000
vn 0.000000 0.000000 -1.000000
vn 0.000000 0.000000 -1.000000
vn 1.000000 0.000000 0.000000
vn 1.000000 0.000000 0.000000
vn 1.000000 0.000000 0.000000
vn 1.000000 0.000000 0.000000
vn 0.000000 0.000000 1.000000
vn 0.000000 0.000000 1.000000
vn 0.000000 0.000000 1.000000
vn 0.000000 0.000000 1.000000
vn -1.000000 0.000000 0.000000
vn -1.000000 0.000000 0.000000
vn -1.000000 0.000000 0.000000
vn -1.000000 0.000000 0.000000
vn 0.000000 0.000000 1.000000
vn 0.000000 0.000000 1.000000
vn 0.000000 0.000000 1.000000
vn 0.000000 0.000000 1.000000
vn -0.704928 0.000000 -0.709279
vn -0.704928 0.000000 -0.709279
vn -0.704928 0.000000 -0.709279
vn -0.704928 0.000000 -0.709279
vn -0.965561 0.000000 -0.260176
vn -0.965561 0.000000 -0.260176
vn -0.965558 0.000000 -0.260187
vn -0.965558 0.000000 -0.260187
vn 0.152585 0.000000 0.988290
vn 0.244461 0.000000 0.969659
vn 0.152585 0.000000 0.988290
vn 0.244461 0.000000 0.969659
vn 0.248450 0.000000 0.968645
vn 0.248450 0.000000 0.968645
vn 0.705326 0.000000 0.708883
vn 0.705326 0.000000 0.708883
vn 0.705330 0.000000 0.708880
vn 0.705330 0.000000 0.708879
vn -1.000000 0.000000 0.000000
vn -1.000000 0.000000 0.000000
vn -1.000000 0.000000 0.000000
vn -1.000000 0.000000 0.000000
vn 0.000000 1.000000 0.000000
vn 0.000000 1.000000 0.000000
vn 0.000000 1.000000 0.000000
vn 0.000000 1.000000 0.000000
vn 0.000000 1.000000 0.000000
vn 0.000000 1.000000 0.000000
vn 0.000000 1.000000 0.000000
vn 0.000000 1.000000 0.000000
vn 0.000000 1.000000 0.000000
vn 0.000000 1.000000 0.000000
vn 0.000000 1.000000 0.000000
vn 0.000000 1.000000 0.000000
vn 0.000000 1.000000 0.000000
vn 0.000000 1.000000 0.000000
vn 0.000000 1.000000 0.000000
vn 0.000000 1.000000 0.000000
vn 0.000000 1.000000 0.000000
vn 0.000000 1.000000 0.000000
vn 0.000000 1.000000 0.000000
vn 0.000000 -1.000000 0.000000
vn 0.000000 -1.000000 0.000000
vn 0.000000 -1.000000 0.000000
vn 0.000000 -1.000000 0.000000
vn 0.000000 0.000000 1.000000
vn 0.000000 0.000000 1.000000
vn 0.000000 0.000000 1.000000
vn 0.000000 0.000000 1.000000
vn 1.000000 0.000000 0.000000
vn 1.000000 0.000000 0.000000
vn 1.000000 0.000000 0.000000
vn 1.000000 0.000000 0.000000
vn 0.000000 0.000000 -1.000000
vn 0.000000 0.000000 -1.000000
vn 0.000000 0.000000 -1.000000
vn 0.000000 0.000000 -1.000000
vn -1.000000 0.000000 0.000000
vn -1.000000 0.000000 0.000000
vn -1.000000 0.000000 0.000000
vn -1.000000 0.000000 0.000000
vn 0.000000 1.000000 0.000000
vn 0.000000 1.000000 0.000000
vn 0.000000 1.000000 0.000000
vn 0.000000 1.000000 0.000000
vn 0.000000 -1.000000 0.000000
vn 0.000000 -1.000000 0.000000
vn 0.000000 -1.000000 0.000000
vn 0.000000 -1.000000 0.000000
vn 0.000000 0.000000 1.000000
vn 0.000000 0.000000 1.000000
vn 0.000000 0.000000 1.000000
vn 0.000000 0.000000 1.000000
vn 1.000000 0.000000 0.000000
vn 1.000000 0.000000 0.000000
vn 1.000000 0.000000 0.000000
vn 1.000000 0.000000 0.000000
vn 0.000000 0.000000 -1.000000
vn 0.000000 0.000000 -1.000000
vn 0.000000 0.000000 -1.000000
vn 0.000000 0.000000 -1.000000
vn -1.000000 0.000000 0.000000
vn -1.000000 0.000000 0.000000
vn -1.000000 0.000000 0.000000
vn -1.000000 0.000000 0.000000
vn 0.000000 1.000000 0.000000
vn 0.000000 1.000000 0.000000
vn 0.000000 1.000000 0.000000
vn 0.000000 1.000000 0.000000
vn 0.000000 -1.000000 0.000000
vn 0.000000 -1.000000 0.000000
vn 0.000000 -1.000000 0.000000
vn 0.000000 -1.000000 0.000000
vn 0.000000 0.000000 1.000000
vn 0.000000 0.000000 1.000000
vn 0.000000 0.000000 1.000000
vn 0.000000 0.000000 1.000000
vn 1.000000 0.000000 0.000000
vn 1.000000 0.000000 0.000000
vn 1.000000 0.000000 0.000000
vn 1.000000 0.000000 0.000000
vn 0.000000 0.000000 -1.000000
vn 0.000000 0.000000 -1.000000
vn 0.000000 0.000000 -1.000000
vn 0.000000 0.000000 -1.000000
vn -1.000000 0.000000 0.000000
vn -1.000000 0.000000 0.000000
vn -1.000000 0.000000 0.000000
vn -1.000000 0.000000 0.000000
vn 0.000000 1.000000 0.000000
vn 0.000000 1.000000 0.000000
vn 0.000000 1.000000 0.000000
vn 0.000000 1.000000 0.000000
vn 0.000000 -1.000000 0.000000
vn 0.000000 -1.000000 0.000000
vn 0.000000 -1.000000 0.000000
vn 0.000000 -1.000000 0.000000
vn 0.000000 0.000000 1.000000
vn 0.000000 0.000000 1.000000
vn 0.000000 0.000000 1.000000
vn 0.000000 0.000000 1.000000
vn 1.000000 0.000000 0.000000
vn 1.000000 0.000000 0.000000
vn 1.000000 0.000000 0.000000
vn 1.000000 0.000000 0.000000
vn 0.000000 0.000000 -1.000000
vn 0.000000 0.000000 -1.000000
vn 0.000000 0.000000 -1.000000
vn 0.000000 0.000000 -1.000000
vn -1.000000 0.000000 0.000000
vn -1.000000 0.000000 0.000000
vn -1.000000 0.000000 0.000000
vn -1.000000 0.000000 0.000000
vn 0.000000 1.000000 0.000000
vn 0.000000 1.000000 0.000000
vn 0.000000 1.000000 0.000000
vn 0.000000 1.000000 0.000000
vn 0.000000 -1.000000 0.000000
vn 0.000000 -1.000000 0.000000
vn 0.000000 -1.000000 0.000000
vn 0.000000 -1.000000 0.000000
vn 0.000000 0.000000 1.000000
vn 0.000000 0.000000 1.000000
vn 0.000000 0.000000 1.000000
vn 0.000000 0.000000 1.000000
vn 1.000000 0.000000 0.000000
vn 1.000000 0.000000 0.000000
vn 1.000000 0.000000 0.000000
vn 1.000000 0.000000 0.000000
vn 0.000000 0.000000 -1.000000
vn 0.000000 0.000000 -1.000000
vn 0.000000 0.000000 -1.000000
vn 0.000000 0.000000 -1.000000
vn -1.000000 0.000000 0.000000
vn -1.000000 0.000000 0.000000
vn -1.000000 0.000000 0.000000
vn -1.000000 0.000000 0.000000
vn 0.000000 1.000000 0.000000
vn 0.000000 1.000000 0.000000
vn 0.000000 1.000000 0.000000
vn 0.000000 1.000000 0.000000
vn 0.000000 -1.000000 0.000000
vn 0.000000 -1.000000 0.000000
vn 0.000000 -1.000000 0.000000
vn 0.000000 -1.000000 0.000000
vn 0.000000 0.000000 1.000000
vn 0.000000 0.000000 1.000000
vn 0.000000 0.000000 1.000000
vn 0.000000 0.000000 1.000000
vn 1.000000 0.000000 0.000000
vn 1.000000 0.000000 0.000000
vn 1.000000 0.000000 0.000000
vn 1.000000 0.000000 0.000000
vn 0.000000 0.000000 -1.000000
vn 0.000000 0.000000 -1.000000
vn 0.000000 0.000000 -1.000000
vn 0.000000 0.000000 -1.000000
vn -1.000000 0.000000 0.000000
vn -1.000000 0.000000 0.000000
vn -1.000000 0.000000 0.000000
vn -1.000000 0.000000 0.000000
vn 0.000000 1.000000 0.000000
vn 0.000000 1.000000 0.000000
vn 0.000000 1.000000 0.000000
vn 0.000000 1.000000 0.000000
vn 0.000000 -1.000000 0.000000
vn 0.000000 -1.000000 0.000000
vn 0.000000 -1.000000 0.000000
vn 0.000000 -1.000000 0.000000
vn 0.000000 0.000000 1.000000
vn 0.000000 0.000000 1.000000
vn 0.000000 0.000000 1.000000
vn 0.000000 0.000000 1.000000
vn 1.000000 0.000000 0.000000
vn 1.000000 0.000000 0.000000
vn 1.000000 0.000000 0.000000
vn 1.000000 0.000000 0.000000
vn 0.000000 0.000000 -1.000000
vn 0.000000 0.000000 -1.000000
vn 0.000000 0.000000 -1.000000
vn 0.000000 0.000000 -1.000000
vn -1.000000 0.000000 0.000000
vn -1.000000 0.000000 0.000000
vn -1.000000 0.000000 0.000000
vn -1.000000 0.000000 0.000000
vn 0.000000 1.000000 0.000000
vn 0.000000 1.000000 0.000000
vn 0.000000 1.000000 0.000000
vn 0.000000 1.000000 0.000000
s 1
g svgMesh3
usemtl svgBlinn4SG
f 8/175/1 11/191/2 1/182/3
f 11/191/2 10/192/4 1/182/3
f 8/175/1 7/176/5 11/191/2
f 11/191/2 7/176/5 12/190/6
f 1/182/3 10/192/4 2/181/7
f 10/192/4 9/193/8 2/181/7
f 2/181/7 9/193/8 3/180/9
f 9/193/8 19/183/10 3/180/9
f 16/186/11 15/187/12 17/185/13
f 17/185/13 15/187/12 18/184/14
f 18/184/14 15/187/12 19/183/10
f 15/187/12 14/188/15 19/183/10
f 19/183/10 14/188/15 3/180/9
f 13/189/16 12/190/6 14/188/15
f 4/179/17 3/180/9 5/178/18
f 5/178/18 3/180/9 6/177/19
f 3/180/9 14/188/15 6/177/19
f 14/188/15 12/190/6 6/177/19
f 12/190/6 7/176/5 6/177/19
s 5
f 1/87/20 2/88/21 48/90/22
f 48/90/22 2/88/21 49/89/23
s 6
f 2/1/24 3/2/25 49/4/26
f 49/4/26 3/2/25 50/3/27
s 7
f 3/2/28 4/5/29 50/3/30
f 50/3/30 4/5/29 51/6/31
s 8
f 4/5/32 5/7/33 51/6/34
f 51/6/34 5/7/33 52/8/35
s 9
f 5/97/36 6/95/37 52/98/38
f 52/98/38 6/95/37 53/96/39
s 10
f 6/95/40 7/91/41 53/96/42
f 53/96/42 7/91/41 54/94/43
s 11
f 7/91/44 8/92/45 54/94/46
f 54/94/46 8/92/45 55/93/47
s 12
f 8/9/48 1/10/49 55/12/50
f 55/12/50 1/10/49 48/11/51
s 13
f 9/99/52 10/100/53 56/102/54
f 56/102/54 10/100/53 57/101/55
s 14
f 10/13/56 11/14/57 57/16/58
f 57/16/58 11/14/57 58/15/59
s 15
f 11/103/60 12/104/61 58/106/62
f 58/106/62 12/104/61 59/105/63
s 16
f 12/17/64 13/18/65 59/20/66
f 59/20/66 13/18/65 60/19/67
s 17
f 13/107/68 14/108/69 60/110/70
f 60/110/70 14/108/69 61/109/71
s 18
f 14/25/72 15/21/73 61/26/74
f 61/26/74 15/21/73 62/24/75
s 19
f 15/21/76 16/22/77 62/24/78
f 62/24/78 16/22/77 63/23/79
s 20
f 16/111/80 17/112/81 63/114/82
f 63/114/82 17/112/81 64/113/83
f 17/112/81 18/115/84 64/113/83
f 64/113/83 18/115/84 65/116/85
s 21
f 18/115/86 19/117/87 65/116/88
f 65/116/88 19/117/87 66/118/89
s 22
f 19/27/90 9/28/91 66/30/92
f 66/30/92 9/28/91 56/29/93
s 23
f 48/194/94 57/203/95 55/201/96
f 57/203/95 58/204/97 55/201/96
f 48/194/94 49/195/98 57/203/95
f 57/203/95 49/195/98 56/202/99
f 49/195/98 50/196/100 56/202/99
f 56/202/99 50/196/100 66/212/101
f 55/201/96 58/204/97 54/200/102
f 58/204/97 59/205/103 54/200/102
f 63/209/104 64/210/105 62/208/106
f 64/210/105 65/211/107 62/208/106
f 65/211/107 66/212/101 62/208/106
f 62/208/106 66/212/101 61/207/108
f 66/212/101 50/196/100 61/207/108
f 60/206/109 61/207/108 59/205/103
f 51/197/110 52/198/111 50/196/100
f 52/198/111 53/199/112 50/196/100
f 50/196/100 53/199/112 61/207/108
f 61/207/108 53/199/112 59/205/103
f 59/205/103 53/199/112 54/200/102
s 27
f 23/213/113 22/214/114 20/216/115
f 20/216/115 22/214/114 21/215/116
s 28
f 20/119/117 21/120/118 67/122/119
f 67/122/119 21/120/118 68/121/120
s 29
f 21/31/121 22/32/122 68/34/123
f 68/34/123 22/32/122 69/33/124
s 30
f 22/123/125 23/124/126 69/126/127
f 69/126/127 23/124/126 70/125/128
s 31
f 23/35/129 20/36/130 70/38/131
f 70/38/131 20/36/130 67/37/132
s 32
f 67/217/133 68/218/134 70/220/135
f 70/220/135 68/218/134 69/219/136
s 33
f 27/221/137 26/222/138 24/224/139
f 24/224/139 26/222/138 25/223/140
s 34
f 24/127/141 25/128/142 71/130/143
f 71/130/143 25/128/142 72/129/144
s 35
f 25/39/145 26/40/146 72/42/147
f 72/42/147 26/40/146 73/41/148
s 36
f 26/131/149 27/132/150 73/134/151
f 73/134/151 27/132/150 74/133/152
s 37
f 27/43/153 24/44/154 74/46/155
f 74/46/155 24/44/154 71/45/156
s 38
f 71/225/157 72/226/158 74/228/159
f 74/228/159 72/226/158 73/227/160
s 39
f 31/229/161 30/230/162 28/232/163
f 28/232/163 30/230/162 29/231/164
s 40
f 28/135/165 29/136/166 75/138/167
f 75/138/167 29/136/166 76/137/168
s 41
f 29/47/169 30/48/170 76/50/171
f 76/50/171 30/48/170 77/49/172
s 42
f 30/139/173 31/140/174 77/142/175
f 77/142/175 31/140/174 78/141/176
s 43
f 31/51/177 28/52/178 78/54/179
f 78/54/179 28/52/178 75/53/180
s 44
f 75/233/181 76/234/182 78/236/183
f 78/236/183 76/234/182 77/235/184
s 45
f 35/237/185 34/238/186 32/240/187
f 32/240/187 34/238/186 33/239/188
s 46
f 32/143/189 33/144/190 79/146/191
f 79/146/191 33/144/190 80/145/192
s 47
f 33/55/193 34/56/194 80/58/195
f 80/58/195 34/56/194 81/57/196
s 48
f 34/147/197 35/148/198 81/150/199
f 81/150/199 35/148/198 82/149/200
s 49
f 35/59/201 32/60/202 82/62/203
f 82/62/203 32/60/202 79/61/204
s 50
f 79/241/205 80/242/206 82/244/207
f 82/244/207 80/242/206 81/243/208
s 51
f 39/245/209 38/246/210 36/248/211
f 36/248/211 38/246/210 37/247/212
s 52
f 36/151/213 37/152/214 83/154/215
f 83/154/215 37/152/214 84/153/216
s 53
f 37/63/217 38/64/218 84/66/219
f 84/66/219 38/64/218 85/65/220
s 54
f 38/155/221 39/156/222 85/158/223
f 85/158/223 39/156/222 86/157/224
s 55
f 39/67/225 36/68/226 86/70/227
f 86/70/227 36/68/226 83/69/228
s 56
f 83/249/229 84/250/230 86/252/231
f 86/252/231 84/250/230 85/251/232
s 57
f 43/253/233 42/254/234 40/256/235
f 40/256/235 42/254/234 41/255/236
s 58
f 40/159/237 41/160/238 87/162/239
f 87/162/239 41/160/238 88/161/240
s 59
f 41/71/241 42/72/242 88/74/243
f 88/74/243 42/72/242 89/73/244
s 60
f 42/163/245 43/164/246 89/166/247
f 89/166/247 43/164/246 90/165/248
s 61
f 43/75/249 40/76/250 90/78/251
f 90/78/251 40/76/250 87/77/252
s 62
f 87/257/253 88/258/254 90/260/255
f 90/260/255 88/258/254 89/259/256
s 63
f 47/261/257 46/262/258 44/264/259
f 44/264/259 46/262/258 45/263/260
s 64
f 44/167/261 45/168/262 91/170/263
f 91/170/263 45/168/262 92/169/264
s 65
f 45/79/265 46/80/266 92/82/267
f 92/82/267 46/80/266 93/81/268
s 66
f 46/171/269 47/172/270 93/174/271
f 93/174/271 47/172/270 94/173/272
s 67
f 47/83/273 44/84/274 94/86/275
f 94/86/275 44/84/274 91/85/276
s 68
f 91/265/277 92/266/278 94/268/279
f 94/268/279 92/266/278 93/267/280
